<svg width="31" height="31" viewBox="0 0 31 31" fill="none" xmlns="http://www.w3.org/2000/svg">
<circle cx="15.5" cy="15.5" r="15.5" fill="#FF4545"/>
<mask id="mask0_62_66578" style="mask-type:alpha" maskUnits="userSpaceOnUse" x="3" y="3" width="24" height="24">
<rect x="3" y="3" width="24" height="24" fill="#D9D9D9"/>
</mask>
<g mask="url(#mask0_62_66578)">
<path d="M15 16.4L10.1 21.3C9.91672 21.4833 9.68338 21.575 9.40005 21.575C9.11672 21.575 8.88338 21.4833 8.70005 21.3C8.51672 21.1167 8.42505 20.8833 8.42505 20.6C8.42505 20.3167 8.51672 20.0833 8.70005 19.9L13.6 15L8.70005 10.1C8.51672 9.91665 8.42505 9.68332 8.42505 9.39999C8.42505 9.11665 8.51672 8.88332 8.70005 8.69999C8.88338 8.51665 9.11672 8.42499 9.40005 8.42499C9.68338 8.42499 9.91672 8.51665 10.1 8.69999L15 13.6L19.9 8.69999C20.0834 8.51665 20.3167 8.42499 20.6 8.42499C20.8834 8.42499 21.1167 8.51665 21.3 8.69999C21.4834 8.88332 21.575 9.11665 21.575 9.39999C21.575 9.68332 21.4834 9.91665 21.3 10.1L16.4 15L21.3 19.9C21.4834 20.0833 21.575 20.3167 21.575 20.6C21.575 20.8833 21.4834 21.1167 21.3 21.3C21.1167 21.4833 20.8834 21.575 20.6 21.575C20.3167 21.575 20.0834 21.4833 19.9 21.3L15 16.4Z" fill="white"/>
</g>
</svg>
