<svg width="120" height="120" viewBox="0 0 120 120" fill="none" xmlns="http://www.w3.org/2000/svg">
<circle cx="60" cy="60" r="49.5" fill="#D9D9D9"/>
<circle cx="60" cy="60" r="59.25" stroke="#CECECE" stroke-width="1.5" stroke-dasharray="7 7"/>
<path d="M54.9715 67.4633V66.4178C54.9715 62.2357 57.8888 59.5944 60.4695 57.1732C62.377 55.3573 64.1161 53.7065 64.1161 51.7806C64.1161 49.6345 63.0502 48.4789 60.6939 48.4789C58.2815 48.4789 56.6545 50.2948 56.2618 53.3213H46.5C46.7805 45.0122 52.8396 40.5 61.4793 40.5C70.1191 40.5 75 44.2969 75 50.8451C75 54.4769 73.1486 56.9531 70.9045 59.0992C68.1555 61.7955 64.9577 63.9416 64.4528 66.6379V67.4633H54.9715ZM59.7402 81C56.374 81 53.6811 78.5788 53.6811 75.5523C53.6811 72.5258 56.374 70.0496 59.7402 70.0496C62.9941 70.0496 65.687 72.5258 65.687 75.5523C65.687 78.5788 62.9941 81 59.7402 81Z" fill="black"/>
</svg>
