<svg width="120" height="121" viewBox="0 0 120 121" fill="none" xmlns="http://www.w3.org/2000/svg">
<circle cx="60" cy="60.5369" r="59.25" stroke="#CECECE" stroke-width="1.5" stroke-dasharray="7 7"/>
<mask id="mask0_33_298334" style="mask-type:alpha" maskUnits="userSpaceOnUse" x="0" y="0" width="120" height="121">
<circle cx="60" cy="60.5369" r="59" fill="#142442" stroke="#CECECE" stroke-width="2" stroke-dasharray="7 7"/>
</mask>
<g mask="url(#mask0_33_298334)">
<path d="M83.3706 45.2249C83.1433 47.0194 82.9064 48.8139 82.6696 50.6567C83.3706 50.6277 84.1854 49.8752 84.479 51.1005C84.6401 51.853 84.6401 52.6152 84.479 53.3678C83.9106 56.4551 83.2191 59.5135 82.2812 62.514C81.9401 63.6043 81.5612 64.7524 80.7749 65.4856C79.4013 66.7592 79.0507 68.38 78.7097 70.0684C78.4255 71.506 78.0939 72.9242 76.9287 73.9469C76.654 74.2846 76.9571 74.7284 76.7108 75.0757C76.7013 75.3748 76.7013 75.6835 76.6919 75.9826C76.4834 76.3396 76.635 76.7255 76.5876 77.0921C76.7866 77.6035 76.2087 78.2885 76.9192 78.6937C77.7339 80.1313 77.9139 81.81 78.615 83.2958C78.7665 83.6238 78.795 84.1255 79.2686 84.0773C80.2728 83.9808 80.6707 84.6851 81.1633 85.3605C82.6033 87.3383 84.6306 88.5829 86.6863 89.7599C89.5568 91.4001 92.6641 92.5 95.6956 93.7639C100.754 95.8768 105.832 97.9704 110.91 100.054C111.554 100.324 112.236 100.489 112.89 100.739C114.718 101.434 116.111 102.553 116.405 104.676C116.679 105.177 116.338 105.766 116.613 106.268C116.859 108.072 117.409 109.808 117.864 111.564C118.451 113.783 118.962 116.022 119.502 118.26C119.597 118.656 119.645 119.071 119.948 119.379C120.147 120.334 119.777 120.537 118.839 120.537C81.7128 120.508 44.5958 120.508 7.46932 120.537C6.52198 120.537 6.19988 120.334 6.35145 119.379C6.42724 118.868 6.36093 118.328 6.36093 117.797C6.79671 115.636 7.25143 113.475 7.67774 111.304C7.99983 109.635 8.28404 107.946 8.58719 106.277C8.85245 105.853 8.53035 105.341 8.79561 104.917C9.01349 103.171 9.85663 101.868 11.4671 101.193C15.2565 99.6202 19.0648 98.1151 22.8637 96.5521C27.0699 94.8251 31.3993 93.3393 35.416 91.2457C38.2012 89.7985 41.1285 88.3417 43.3263 85.8911C43.7432 85.4184 44.1221 84.907 44.4916 84.3957C44.6716 84.1448 44.8326 83.7492 45.0884 83.7782C46.7178 83.9229 46.6042 82.4757 47.0873 81.5785C47.6462 80.5461 47.362 79.1857 48.3757 78.2885C48.5462 78.1341 48.3283 77.5167 48.2904 77.1114C48.101 76.7738 48.2241 76.4071 48.1862 76.0598C48.1389 75.6546 48.2999 75.2397 48.082 74.8538C48.101 74.4582 48.0252 74.0627 47.7505 73.8118C46.1968 72.3453 46.0452 70.3193 45.6473 68.3993C45.4673 67.5406 45.2021 66.7977 44.5579 66.1513C43.1274 64.7234 42.3506 62.871 41.8959 60.9221C41.3085 58.4233 40.418 55.992 40.3043 53.3871C40.1338 52.6345 40.1433 51.882 40.3043 51.1198C40.3138 51.0812 40.3043 51.0233 40.3233 51.0136C41.5643 50.1453 40.9959 49.0069 40.7496 47.9263C40.418 46.5177 39.9917 45.1284 39.8591 43.6715C39.6885 42.234 39.698 40.8061 39.8591 39.3685C39.8685 38.8475 39.8685 38.3169 39.878 37.7959C40.1243 37.4486 39.8401 37.0048 40.077 36.6574C40.1622 33.3482 40.5885 30.0486 41.8864 27.0481C43.8379 22.5425 47.3526 19.7252 52.1082 18.6061C52.6009 18.4903 53.1124 18.4324 53.624 18.3456C53.965 18.0947 54.4008 18.3938 54.7419 18.1333C55.0355 18.1333 55.3292 18.1237 55.6229 18.1237C55.9639 17.8728 56.3997 18.1719 56.7408 17.9114C57.1102 17.9018 57.4797 17.9018 57.8492 17.8921C58.3986 17.6799 58.9765 17.8439 59.5354 17.786C60.0849 17.7281 60.6438 17.9018 61.1743 17.6799C62.3585 17.6799 63.5427 17.6799 64.7269 17.6799C65.2195 17.9597 65.7879 17.6123 66.2805 17.8921C68.8384 17.8921 71.1783 18.6157 73.3761 19.9857C75.4224 21.2593 77.3455 22.6486 79.155 24.2791C81.6938 26.5753 82.4328 29.5951 82.9159 32.7693C83.1149 34.0525 83.2191 35.355 83.3706 36.6478C83.6454 37.2267 83.2949 37.8827 83.5791 38.4616C83.5885 38.8379 83.5885 39.2142 83.598 39.5904C83.759 40.7964 83.759 42.0024 83.598 43.1988C83.5885 43.4979 83.5885 43.797 83.5791 44.1057C83.3233 44.4337 83.6075 44.8775 83.3706 45.2249Z" fill="#E0E0E0"/>
</g>
<path d="M55.6094 65.6218V64.8299C55.6094 61.6622 57.826 59.6615 59.7868 57.8276C61.2361 56.4522 62.5575 55.2018 62.5575 53.7429C62.5575 52.1174 61.7476 51.2421 59.9573 51.2421C58.1244 51.2421 56.8882 52.6176 56.5898 54.91H49.1729C49.386 48.6163 53.9896 45.1985 60.5541 45.1985C67.1185 45.1985 70.827 48.0744 70.827 53.0344C70.827 55.7853 69.4203 57.6609 67.7153 59.2864C65.6266 61.3288 63.1969 62.9543 62.8133 64.9966V65.6218H55.6094ZM59.2326 75.8752C56.6751 75.8752 54.629 74.0412 54.629 71.7488C54.629 69.4564 56.6751 67.5808 59.2326 67.5808C61.705 67.5808 63.751 69.4564 63.751 71.7488C63.751 74.0412 61.705 75.8752 59.2326 75.8752Z" fill="black"/>
</svg>
