<svg width="31" height="31" viewBox="0 0 31 31" fill="none" xmlns="http://www.w3.org/2000/svg">
<circle cx="15.5" cy="15.5" r="15.5" fill="#009657"/>
<mask id="mask0_62_66573" style="mask-type:alpha" maskUnits="userSpaceOnUse" x="4" y="3" width="24" height="24">
<rect x="4" y="3" width="24" height="24" fill="#D9D9D9"/>
</mask>
<g mask="url(#mask0_62_66573)">
<path d="M13.55 20.575C13.4167 20.575 13.2917 20.5542 13.175 20.5125C13.0584 20.4709 12.95 20.4 12.85 20.3L8.55003 16C8.3667 15.8167 8.2792 15.5792 8.28753 15.2875C8.29586 14.9959 8.3917 14.7584 8.57503 14.575C8.75836 14.3917 8.9917 14.3 9.27503 14.3C9.55836 14.3 9.7917 14.3917 9.97503 14.575L13.55 18.15L22.025 9.67502C22.2084 9.49169 22.4459 9.40002 22.7375 9.40002C23.0292 9.40002 23.2667 9.49169 23.45 9.67502C23.6334 9.85836 23.725 10.0959 23.725 10.3875C23.725 10.6792 23.6334 10.9167 23.45 11.1L14.25 20.3C14.15 20.4 14.0417 20.4709 13.925 20.5125C13.8084 20.5542 13.6834 20.575 13.55 20.575Z" fill="white"/>
</g>
</svg>
