<svg width="40" height="31" viewBox="0 0 40 31" fill="none" xmlns="http://www.w3.org/2000/svg">
<path d="M11.0742 1.49611C11.3362 1.29912 11.6343 1.1558 11.9515 1.07431C12.2688 0.992831 12.5989 0.97479 12.9231 1.02122C13.2473 1.06765 13.5592 1.17765 13.8409 1.34492C14.1227 1.5122 14.3689 1.73348 14.5654 1.99614C14.7619 2.25879 14.9048 2.55767 14.9861 2.87572C15.0674 3.19377 15.0854 3.52475 15.0391 3.84977C14.9927 4.17478 14.883 4.48747 14.7162 4.76998C14.5493 5.05249 14.3286 5.29929 14.0666 5.49628C10.1665 8.4289 7.93211 11.2815 6.65284 13.7716C8.40933 13.3183 10.2631 13.4249 11.9564 14.0765C13.6497 14.7282 15.0984 15.8925 16.1012 17.4077C17.104 18.9229 17.6111 20.7136 17.552 22.5311C17.4928 24.3485 16.8704 26.1023 15.7712 27.5488C14.672 28.9952 13.1506 30.0624 11.4186 30.602C9.6865 31.1416 7.82978 31.1268 6.1065 30.5596C4.38321 29.9925 2.87896 28.9012 1.80284 27.4374C0.726717 25.9737 0.132179 24.2101 0.101864 22.392C-0.217674 19.3217 0.217249 16.2196 1.36867 13.3566C2.85741 9.59145 5.76757 5.48628 11.0742 1.49611ZM33.5176 1.49611C33.7796 1.29912 34.0777 1.1558 34.3949 1.07431C34.7121 0.992831 35.0423 0.97479 35.3665 1.02122C35.6906 1.06765 36.0025 1.17765 36.2843 1.34492C36.5661 1.5122 36.8123 1.73348 37.0088 1.99614C37.2052 2.25879 37.3482 2.55767 37.4295 2.87572C37.5108 3.19377 37.5288 3.52475 37.4824 3.84977C37.4361 4.17478 37.3264 4.48747 37.1596 4.76998C36.9927 5.05249 36.772 5.29929 36.51 5.49628C32.6099 8.4289 30.3755 11.2815 29.0962 13.7716C30.8527 13.3183 32.7064 13.4249 34.3997 14.0765C36.093 14.7282 37.5418 15.8925 38.5446 17.4077C39.5474 18.9229 40.0545 20.7136 39.9954 22.5311C39.9362 24.3485 39.3138 26.1023 38.2146 27.5488C37.1154 28.9952 35.594 30.0624 33.8619 30.602C32.1299 31.1416 30.2732 31.1268 28.5499 30.5596C26.8266 29.9925 25.3223 28.9012 24.2462 27.4374C23.1701 25.9737 22.5756 24.2101 22.5452 22.392C22.2257 19.3217 22.6606 16.2196 23.8121 13.3566C25.3033 9.59145 28.211 5.48628 33.5176 1.49611Z" fill="#E0E0E0"/>
</svg>
